<svg width="20" height="20" viewBox="0 0 20 20" fill="none" xmlns="http://www.w3.org/2000/svg">
<path d="M6.18086 3.13425C6.52148 3.37175 6.60273 3.8405 6.36523 4.178L4.61523 6.678C4.48711 6.85925 4.28711 6.97488 4.06523 6.99363C3.84336 7.01238 3.62461 6.93738 3.46836 6.78113L2.21836 5.53113C1.92773 5.23738 1.92773 4.76238 2.21836 4.46863C2.50898 4.17488 2.98711 4.178 3.28086 4.46863L3.89961 5.08738L5.13711 3.31863C5.37461 2.978 5.84336 2.89675 6.18086 3.13425ZM6.18086 8.13425C6.52148 8.37175 6.60273 8.8405 6.36523 9.178L4.61523 11.678C4.48711 11.8593 4.28711 11.9749 4.06523 11.9936C3.84336 12.0124 3.62461 11.9374 3.46836 11.7811L2.21836 10.5311C1.92461 10.2374 1.92461 9.76238 2.21836 9.47175C2.51211 9.18113 2.98711 9.178 3.27773 9.47175L3.89648 10.0905L5.13398 8.32175C5.37148 7.98113 5.84023 7.89988 6.17773 8.13738L6.18086 8.13425ZM8.99961 4.99988C8.99961 4.44675 9.44648 3.99988 9.99961 3.99988H16.9996C17.5527 3.99988 17.9996 4.44675 17.9996 4.99988C17.9996 5.553 17.5527 5.99988 16.9996 5.99988H9.99961C9.44648 5.99988 8.99961 5.553 8.99961 4.99988ZM8.99961 9.99988C8.99961 9.44675 9.44648 8.99988 9.99961 8.99988H16.9996C17.5527 8.99988 17.9996 9.44675 17.9996 9.99988C17.9996 10.553 17.5527 10.9999 16.9996 10.9999H9.99961C9.44648 10.9999 8.99961 10.553 8.99961 9.99988ZM6.99961 14.9999C6.99961 14.4468 7.44648 13.9999 7.99961 13.9999H16.9996C17.5527 13.9999 17.9996 14.4468 17.9996 14.9999C17.9996 15.553 17.5527 15.9999 16.9996 15.9999H7.99961C7.44648 15.9999 6.99961 15.553 6.99961 14.9999ZM3.99961 13.7499C4.69023 13.7499 5.24961 14.3093 5.24961 14.9999C5.24961 15.6905 4.69023 16.2499 3.99961 16.2499C3.30898 16.2499 2.74961 15.6905 2.74961 14.9999C2.74961 14.3093 3.30898 13.7499 3.99961 13.7499Z" fill="#1A1A1A"/>
</svg>
