<svg width="16" height="16" viewBox="0 0 16 16" fill="none" xmlns="http://www.w3.org/2000/svg">
<path d="M9.33333 9.33332V3.99998M9.33333 9.33332L13.4013 11.658C13.4621 11.6928 13.531 11.711 13.601 11.7108C13.6711 11.7106 13.7398 11.6921 13.8004 11.657C13.8611 11.6219 13.9114 11.5715 13.9464 11.5108C13.9814 11.4501 13.9999 11.3814 14 11.3113V2.02198C14 1.95189 13.9816 1.88301 13.9467 1.82226C13.9117 1.76151 13.8614 1.71102 13.8007 1.67584C13.7401 1.64066 13.6713 1.62204 13.6012 1.62183C13.5311 1.62162 13.4622 1.63983 13.4013 1.67465L9.33333 3.99998M9.33333 9.33332H4.66667M9.33333 3.99998H4.66667C3.95942 3.99998 3.28115 4.28093 2.78105 4.78103C2.28095 5.28113 2 5.95941 2 6.66665C2 7.37389 2.28095 8.05217 2.78105 8.55227C3.28115 9.05236 3.95942 9.33332 4.66667 9.33332M4.66667 9.33332L5.17133 12.8666C5.22399 13.2104 5.41019 13.5195 5.68946 13.7268C5.96873 13.934 6.31851 14.0227 6.66279 13.9735C7.00707 13.9243 7.31803 13.7413 7.5281 13.4641C7.73817 13.1869 7.83037 12.8381 7.78467 12.4933L7.33333 9.33332H4.66667Z" stroke="black"/>
</svg>
