<svg width="16" height="16" viewBox="0 0 16 16" fill="none" xmlns="http://www.w3.org/2000/svg">
<path d="M6.00391 5.89348C6.20069 5.46396 6.53511 5.11233 6.95423 4.89426C7.37335 4.67619 7.85322 4.60413 8.31791 4.68948C8.63618 4.73834 8.93857 4.86113 9.20081 5.04799C9.46304 5.23486 9.67782 5.4806 9.82791 5.76548C9.93598 5.9934 9.9946 6.2416 9.99993 6.49378C10.0053 6.74597 9.95716 6.99642 9.85881 7.2287C9.76046 7.46097 9.61408 7.66981 9.42928 7.84149C9.24448 8.01317 9.02545 8.14381 8.78657 8.22482C8.54305 8.3173 8.33234 8.47977 8.18097 8.69176C8.02959 8.90375 7.94433 9.1558 7.93591 9.41615V9.90815" stroke="black" stroke-miterlimit="10" stroke-linecap="round"/>
<path d="M7.91992 11.616H7.92526" stroke="black" stroke-width="1.33333" stroke-linecap="round" stroke-linejoin="round"/>
<path d="M7.99935 14.3334C9.67905 14.3334 11.29 13.6662 12.4777 12.4784C13.6654 11.2907 14.3327 9.67979 14.3327 8.00008C14.3327 6.32038 13.6654 4.70947 12.4777 3.52174C11.29 2.33401 9.67905 1.66675 7.99935 1.66675C6.31964 1.66675 4.70874 2.33401 3.52101 3.52174C2.33328 4.70947 1.66602 6.32038 1.66602 8.00008C1.66602 9.67979 2.33328 11.2907 3.52101 12.4784C4.70874 13.6662 6.31964 14.3334 7.99935 14.3334Z" stroke="black" stroke-linecap="round" stroke-linejoin="round"/>
</svg>
