<svg width="16" height="16" viewBox="0 0 16 16" fill="none" xmlns="http://www.w3.org/2000/svg">
<g clip-path="url(#clip0_571_4447)">
<path d="M8.14578 1.33325H7.85249C7.49892 1.33325 7.15983 1.47371 6.90982 1.72372C6.65981 1.97373 6.51935 2.31282 6.51935 2.66639V2.78638C6.51911 3.02016 6.4574 3.24977 6.3404 3.45217C6.22341 3.65458 6.05524 3.82265 5.85278 3.93954L5.56615 4.10619C5.36349 4.22319 5.1336 4.28479 4.89958 4.28479C4.66557 4.28479 4.43568 4.22319 4.23301 4.10619L4.13303 4.05286C3.82711 3.8764 3.46368 3.82852 3.12251 3.91975C2.78133 4.01098 2.4903 4.23386 2.31329 4.53946L2.16664 4.79276C1.99018 5.09867 1.9423 5.4621 2.03353 5.80328C2.12476 6.14445 2.34764 6.43549 2.65324 6.61249L2.75322 6.67915C2.95471 6.79548 3.12225 6.9625 3.23919 7.16364C3.35613 7.36477 3.41839 7.593 3.4198 7.82565V8.1656C3.42073 8.40052 3.35957 8.63151 3.24252 8.83518C3.12546 9.03885 2.95667 9.20798 2.75322 9.32544L2.65324 9.38543C2.34764 9.56244 2.12476 9.85347 2.03353 10.1946C1.9423 10.5358 1.99018 10.8993 2.16664 11.2052L2.31329 11.4585C2.4903 11.7641 2.78133 11.9869 3.12251 12.0782C3.46368 12.1694 3.82711 12.1215 4.13303 11.9451L4.23301 11.8917C4.43568 11.7747 4.66557 11.7131 4.89958 11.7131C5.1336 11.7131 5.36349 11.7747 5.56615 11.8917L5.85278 12.0584C6.05524 12.1753 6.22341 12.3433 6.3404 12.5458C6.4574 12.7482 6.51911 12.9778 6.51935 13.2115V13.3315C6.51935 13.6851 6.65981 14.0242 6.90982 14.2742C7.15983 14.5242 7.49892 14.6647 7.85249 14.6647H8.14578C8.49936 14.6647 8.83844 14.5242 9.08846 14.2742C9.33847 14.0242 9.47893 13.6851 9.47893 13.3315V13.2115C9.47917 12.9778 9.54088 12.7482 9.65787 12.5458C9.77487 12.3433 9.94303 12.1753 10.1455 12.0584L10.4321 11.8917C10.6348 11.7747 10.8647 11.7131 11.0987 11.7131C11.3327 11.7131 11.5626 11.7747 11.7653 11.8917L11.8652 11.9451C12.1712 12.1215 12.5346 12.1694 12.8758 12.0782C13.2169 11.9869 13.508 11.7641 13.685 11.4585L13.8316 11.1985C14.0081 10.8926 14.056 10.5292 13.9647 10.188C13.8735 9.84681 13.6506 9.55577 13.345 9.37876L13.2451 9.32544C13.0416 9.20798 12.8728 9.03885 12.7558 8.83518C12.6387 8.63151 12.5775 8.40052 12.5785 8.1656V7.83232C12.5775 7.59741 12.6387 7.36642 12.7558 7.16274C12.8728 6.95907 13.0416 6.78994 13.2451 6.67249L13.345 6.61249C13.6506 6.43549 13.8735 6.14445 13.9647 5.80328C14.056 5.4621 14.0081 5.09867 13.8316 4.79276L13.685 4.53946C13.508 4.23386 13.2169 4.01098 12.8758 3.91975C12.5346 3.82852 12.1712 3.8764 11.8652 4.05286L11.7653 4.10619C11.5626 4.22319 11.3327 4.28479 11.0987 4.28479C10.8647 4.28479 10.6348 4.22319 10.4321 4.10619L10.1455 3.93954C9.94303 3.82265 9.77487 3.65458 9.65787 3.45217C9.54088 3.24977 9.47917 3.02016 9.47893 2.78638V2.66639C9.47893 2.31282 9.33847 1.97373 9.08846 1.72372C8.83844 1.47371 8.49936 1.33325 8.14578 1.33325Z" stroke="black" stroke-width="1.1" stroke-linecap="round" stroke-linejoin="round"/>
<path d="M7.99971 9.99845C9.10412 9.99845 9.99943 9.10315 9.99943 7.99874C9.99943 6.89433 9.10412 5.99902 7.99971 5.99902C6.8953 5.99902 6 6.89433 6 7.99874C6 9.10315 6.8953 9.99845 7.99971 9.99845Z" stroke="black" stroke-width="1.1" stroke-linecap="round" stroke-linejoin="round"/>
</g>
<defs>
<clipPath id="clip0_571_4447">
<rect width="15.9977" height="15.9977" fill="white"/>
</clipPath>
</defs>
</svg>
