<svg width="26" height="26" viewBox="0 0 26 26" fill="none" xmlns="http://www.w3.org/2000/svg">
<path d="M4.33333 3.25H21.6667C21.954 3.25 22.2295 3.36414 22.4327 3.5673C22.6359 3.77047 22.75 4.04602 22.75 4.33333V21.6667C22.75 21.954 22.6359 22.2295 22.4327 22.4327C22.2295 22.6359 21.954 22.75 21.6667 22.75H4.33333C4.04602 22.75 3.77047 22.6359 3.5673 22.4327C3.36414 22.2295 3.25 21.954 3.25 21.6667V4.33333C3.25 4.04602 3.36414 3.77047 3.5673 3.5673C3.77047 3.36414 4.04602 3.25 4.33333 3.25ZM5.41667 5.41667V20.5833H20.5833V5.41667H5.41667ZM11.9199 17.3333L7.32333 12.7368L8.85517 11.2049L11.9199 14.2697L18.0483 8.14125L19.5802 9.67308L11.9199 17.3333Z" fill="#3C74ED"/>
</svg>
