<svg width="28" height="28" viewBox="0 0 28 28" fill="none" xmlns="http://www.w3.org/2000/svg">
<path d="M24.5 22.1666V14.3115C24.5 13.6785 24.3712 13.0521 24.1215 12.4705C23.8718 11.8889 23.5064 11.3641 23.0475 10.9281L15.6077 3.86164C15.174 3.44967 14.5987 3.21997 14.0006 3.21997C13.4024 3.21997 12.8271 3.44967 12.3935 3.86164L4.9525 10.9281C4.49359 11.3641 4.12818 11.8889 3.87847 12.4705C3.62877 13.0521 3.5 13.6785 3.5 14.3115V22.1666C3.5 22.7855 3.74583 23.379 4.18342 23.8166C4.621 24.2541 5.21449 24.5 5.83333 24.5H22.1667C22.7855 24.5 23.379 24.2541 23.8166 23.8166C24.2542 23.379 24.5 22.7855 24.5 22.1666Z" stroke="white" stroke-width="2.33333" stroke-linecap="round" stroke-linejoin="round"/>
</svg>
