<svg width="110" height="120" viewBox="0 0 110 120" fill="none" xmlns="http://www.w3.org/2000/svg">
<path opacity="0.2" fill-rule="evenodd" clip-rule="evenodd" d="M66.6667 25.4017C75.7772 26.1896 84.2478 30.1756 90.4152 36.577C96.5826 42.9784 100.001 51.3327 100 59.9996V78.4733C103.036 80.1042 105.561 82.4687 107.318 85.3257C109.075 88.1828 110 91.4301 110 94.7365C110 98.0866 108.595 101.299 106.095 103.668C103.594 106.037 100.203 107.368 96.6667 107.368H73.3333C73.3333 110.718 71.9286 113.931 69.4281 116.3C66.9276 118.669 63.5362 120 60 120C56.4638 120 53.0724 118.669 50.5719 116.3C48.0714 113.931 46.6667 110.718 46.6667 107.368H23.3333C19.7971 107.368 16.4057 106.037 13.9052 103.668C11.4048 101.299 10 98.0866 10 94.7365C9.99986 91.4301 10.9253 88.1828 12.6821 85.3257C14.4388 82.4687 16.964 80.1042 20 78.4733V59.9996C19.9987 51.3327 23.4174 42.9784 29.5848 36.577C35.7522 30.1756 44.2228 26.1896 53.3333 25.4017V12.6312C53.3333 10.9562 54.0357 9.34972 55.286 8.16528C56.5362 6.98084 58.2319 6.31543 60 6.31543C61.7681 6.31543 63.4638 6.98084 64.714 8.16528C65.9643 9.34972 66.6667 10.9562 66.6667 12.6312V25.4017Z" fill="black" fill-opacity="0.5"/>
<path d="M36.666 101.052C36.666 100.215 37.0172 99.4117 37.6423 98.8195C38.2674 98.2272 39.1153 97.8945 39.9993 97.8945C40.8834 97.8945 41.7313 98.2272 42.3564 98.8195C42.9815 99.4117 43.3327 100.215 43.3327 101.052C43.3327 102.727 44.0351 104.334 45.2853 105.518C46.5355 106.703 48.2312 107.368 49.9993 107.368C51.7675 107.368 53.4632 106.703 54.7134 105.518C55.9636 104.334 56.666 102.727 56.666 101.052C56.666 100.215 57.0172 99.4117 57.6423 98.8195C58.2674 98.2272 59.1153 97.8945 59.9993 97.8945C60.8834 97.8945 61.7313 98.2272 62.3564 98.8195C62.9815 99.4117 63.3327 100.215 63.3327 101.052C63.3327 104.403 61.9279 107.615 59.4274 109.984C56.927 112.353 53.5356 113.684 49.9993 113.684C46.4631 113.684 43.0717 112.353 40.5713 109.984C38.0708 107.615 36.666 104.403 36.666 101.052Z" fill="black" fill-opacity="0.5"/>
<path fill-rule="evenodd" clip-rule="evenodd" d="M100 85.2632C100 81.9568 99.0746 78.7095 97.3179 75.8525C95.5611 72.9955 93.036 70.631 90 69.0001V50.5264C90 41.3136 86.1369 32.4782 79.2606 25.9637C72.3842 19.4493 63.0579 15.7896 53.3333 15.7896H46.6667C36.9421 15.7896 27.6158 19.4493 20.7394 25.9637C13.8631 32.4782 10 41.3136 10 50.5264V69.0001C6.96398 70.631 4.43884 72.9955 2.68209 75.8525C0.92535 78.7095 -0.000143079 81.9568 1.6591e-08 85.2632C1.6591e-08 88.6133 1.40476 91.8262 3.90524 94.1951C6.40573 96.564 9.79711 97.8948 13.3333 97.8948H86.6667C90.2029 97.8948 93.5943 96.564 96.0947 94.1951C98.5952 91.8262 100 88.6133 100 85.2632ZM83.3333 72.998L85.3 73.838L85.6667 73.9896C87.9527 74.9724 89.8914 76.5583 91.2511 78.5576C92.6107 80.5569 93.3336 82.8849 93.3333 85.2632C93.3333 86.9383 92.631 88.5447 91.3807 89.7292C90.1305 90.9136 88.4348 91.579 86.6667 91.579H13.3333C11.5652 91.579 9.86953 90.9136 8.61929 89.7292C7.36905 88.5447 6.66667 86.9383 6.66667 85.2632C6.66667 80.4064 9.66667 75.998 14.3333 73.9959L14.7 73.838L16.6667 72.998V50.5264C16.6667 42.9887 19.8274 35.7597 25.4535 30.4297C31.0796 25.0997 38.7102 22.1053 46.6667 22.1053H53.3333C61.2898 22.1053 68.9204 25.0997 74.5465 30.4297C80.1726 35.7597 83.3333 42.9887 83.3333 50.5264V72.998Z" fill="black" fill-opacity="0.5"/>
<path d="M46.666 3.15789C46.666 2.32037 47.0172 1.51715 47.6423 0.924926C48.2674 0.332706 49.1153 0 49.9993 0C50.8834 0 51.7313 0.332706 52.3564 0.924926C52.9815 1.51715 53.3327 2.32037 53.3327 3.15789V18.9474C53.3327 19.7849 52.9815 20.5881 52.3564 21.1803C51.7313 21.7726 50.8834 22.1053 49.9993 22.1053C49.1153 22.1053 48.2674 21.7726 47.6423 21.1803C47.0172 20.5881 46.666 19.7849 46.666 18.9474V3.15789Z" fill="black" fill-opacity="0.5"/>
</svg>
