<svg width="120" height="120" viewBox="0 0 120 120" fill="none" xmlns="http://www.w3.org/2000/svg">
<path opacity="0.2" d="M115 18.4616V41.5385H5V18.4616C5 17.2375 5.52679 16.0636 6.46447 15.198C7.40215 14.3325 8.67392 13.8462 10 13.8462H110C111.326 13.8462 112.598 14.3325 113.536 15.198C114.473 16.0636 115 17.2375 115 18.4616Z" fill="black" fill-opacity="0.5"/>
<path d="M110 9.23077H95V4.61538C95 3.39131 94.4732 2.21737 93.5355 1.35181C92.5979 0.486262 91.3261 0 90 0C88.6739 0 87.4021 0.486262 86.4645 1.35181C85.5268 2.21737 85 3.39131 85 4.61538V9.23077H35V4.61538C35 3.39131 34.4732 2.21737 33.5355 1.35181C32.5979 0.486262 31.3261 0 30 0C28.6739 0 27.4021 0.486262 26.4645 1.35181C25.5268 2.21737 25 3.39131 25 4.61538V9.23077H10C7.34784 9.23077 4.8043 10.2033 2.92893 11.9344C1.05357 13.6655 0 16.0134 0 18.4615V110.769C0 113.217 1.05357 115.565 2.92893 117.296C4.8043 119.027 7.34784 120 10 120H110C112.652 120 115.196 119.027 117.071 117.296C118.946 115.565 120 113.217 120 110.769V18.4615C120 16.0134 118.946 13.6655 117.071 11.9344C115.196 10.2033 112.652 9.23077 110 9.23077ZM25 18.4615V23.0769C25 24.301 25.5268 25.4749 26.4645 26.3405C27.4021 27.206 28.6739 27.6923 30 27.6923C31.3261 27.6923 32.5979 27.206 33.5355 26.3405C34.4732 25.4749 35 24.301 35 23.0769V18.4615H85V23.0769C85 24.301 85.5268 25.4749 86.4645 26.3405C87.4021 27.206 88.6739 27.6923 90 27.6923C91.3261 27.6923 92.5979 27.206 93.5355 26.3405C94.4732 25.4749 95 24.301 95 23.0769V18.4615H110V36.9231H10V18.4615H25ZM110 110.769H10V46.1538H110V110.769ZM50 60V96.9231C50 98.1472 49.4732 99.3211 48.5355 100.187C47.5979 101.052 46.3261 101.538 45 101.538C43.6739 101.538 42.4021 101.052 41.4645 100.187C40.5268 99.3211 40 98.1472 40 96.9231V67.4654L37.2375 68.7462C36.0507 69.2939 34.6767 69.3841 33.4179 68.9967C32.159 68.6094 31.1184 67.7763 30.525 66.6808C29.9316 65.5852 29.8339 64.3169 30.2535 63.1549C30.6732 61.9929 31.5757 61.0324 32.7625 60.4846L42.7625 55.8692C43.5251 55.517 44.3726 55.3506 45.2244 55.386C46.0763 55.4213 46.9042 55.6571 47.6295 56.0711C48.3548 56.485 48.9533 57.0633 49.3682 57.751C49.7831 58.4387 50.0006 59.2129 50 60ZM86.975 77.5673L75 92.3077H85C86.3261 92.3077 87.5979 92.794 88.5355 93.6595C89.4732 94.5251 90 95.699 90 96.9231C90 98.1472 89.4732 99.3211 88.5355 100.187C87.5979 101.052 86.3261 101.538 85 101.538H65C64.0714 101.538 63.1612 101.3 62.3713 100.849C61.5815 100.399 60.9431 99.7538 60.5279 98.9871C60.1126 98.2205 59.9368 97.3623 60.0202 96.5086C60.1036 95.6549 60.4429 94.8395 61 94.1538L78.9875 72.0173C79.3966 71.5145 79.6902 70.9399 79.8501 70.3286C80.0099 69.7173 80.0328 69.0824 79.9173 68.4627C79.8018 67.8429 79.5503 67.2515 79.1783 66.7248C78.8062 66.198 78.3215 65.747 77.7538 65.3993C77.1862 65.0517 76.5475 64.8148 75.8771 64.7032C75.2067 64.5916 74.5186 64.6077 73.8552 64.7503C73.1917 64.893 72.5668 65.1594 72.0189 65.533C71.471 65.9066 71.0115 66.3796 70.6688 66.9231C70.3501 67.4647 69.9172 67.9419 69.3955 68.3266C68.8739 68.7113 68.274 68.9957 67.6314 69.1629C66.9887 69.3301 66.3163 69.3768 65.6538 69.3003C64.9913 69.2237 64.3521 69.0255 63.7739 68.7172C63.1957 68.4089 62.6903 67.9969 62.2874 67.5054C61.8846 67.0139 61.5925 66.4529 61.4283 65.8555C61.2641 65.2581 61.2312 64.6364 61.3316 64.027C61.4319 63.4177 61.6634 62.8331 62.0125 62.3077C63.6641 59.6694 66.2125 57.6076 69.2626 56.4421C72.3127 55.2766 75.6941 55.0724 78.8827 55.8611C82.0712 56.6498 84.8889 58.3875 86.8989 60.8047C88.9089 63.2219 89.9989 66.1836 90 69.2308C90.0106 72.2408 88.9476 75.1704 86.975 77.5673Z" fill="black" fill-opacity="0.5"/>
</svg>
