<svg width="120" height="120" viewBox="0 0 120 120" fill="none" xmlns="http://www.w3.org/2000/svg">
<path d="M109.091 12.7659H98.1817C97.82 12.7659 97.4732 12.6314 97.2175 12.392C96.9617 12.1526 96.8181 11.8279 96.8181 11.4894V5.10638C96.8181 3.75208 96.2434 2.45326 95.2205 1.49562C94.1975 0.537992 92.8102 0 91.3635 0C89.9169 0 88.5295 0.537992 87.5066 1.49562C86.4837 2.45326 85.909 3.75208 85.909 5.10638V26.3489C85.909 27.7032 86.4837 29.002 87.5066 29.9597C88.5295 30.9173 89.9169 31.4553 91.3635 31.4553C92.8102 31.4553 94.1975 30.9173 95.2205 29.9597C96.2434 29.002 96.8181 27.7032 96.8181 26.3489V24.2553C96.8181 23.9167 96.9617 23.592 97.2175 23.3526C97.4732 23.1132 97.82 22.9787 98.1817 22.9787H106.364C107.087 22.9787 107.781 23.2477 108.292 23.7265C108.803 24.2053 109.091 24.8547 109.091 25.5319V79.1489C109.091 79.826 108.803 80.4754 108.292 80.9542C107.781 81.4331 107.087 81.702 106.364 81.702H89.9999C87.1066 81.702 84.3319 82.778 82.286 84.6933C80.2402 86.6086 79.0908 89.2062 79.0908 91.9148V107.234C79.0908 107.911 78.8035 108.561 78.292 109.039C77.7805 109.518 77.0869 109.787 76.3635 109.787H13.6363C12.913 109.787 12.2193 109.518 11.7079 109.039C11.1964 108.561 10.9091 107.911 10.9091 107.234V25.5319C10.9091 24.8547 11.1964 24.2053 11.7079 23.7265C12.2193 23.2477 12.913 22.9787 13.6363 22.9787H19.0909C19.4525 22.9787 19.7994 22.8442 20.0551 22.6048C20.3109 22.3654 20.4545 22.0407 20.4545 21.7021V14.0425C20.4545 13.704 20.3109 13.3793 20.0551 13.1399C19.7994 12.9004 19.4525 12.7659 19.0909 12.7659H10.9091C8.01581 12.7659 5.24104 13.8419 3.19519 15.7572C1.14935 17.6725 0 20.2701 0 22.9787V109.787C0 112.496 1.14935 115.093 3.19519 117.009C5.24104 118.924 8.01581 120 10.9091 120H84.5453C85.3024 120.005 86.0523 119.862 86.7472 119.581C87.4421 119.299 88.0669 118.886 88.5817 118.366L118.582 87.7276C119.504 86.7781 120.01 85.5384 120 84.2552V22.9787C120 20.2701 118.851 17.6725 116.805 15.7572C114.759 13.8419 111.984 12.7659 109.091 12.7659Z" fill="black" fill-opacity="0.5"/>
<path d="M61.3636 31.4553C62.8102 31.4553 64.1976 30.9173 65.2205 29.9597C66.2434 29.002 66.8181 27.7032 66.8181 26.3489V24.2553C66.8181 23.9167 66.9618 23.592 67.2175 23.3526C67.4732 23.1132 67.8201 22.9787 68.1817 22.9787H79.0908C79.4525 22.9787 79.7993 22.8442 80.055 22.6048C80.3108 22.3654 80.4544 22.0407 80.4544 21.7021V14.0425C80.4544 13.704 80.3108 13.3793 80.055 13.1399C79.7993 12.9004 79.4525 12.7659 79.0908 12.7659H68.1817C67.8201 12.7659 67.4732 12.6314 67.2175 12.392C66.9618 12.1526 66.8181 11.8279 66.8181 11.4894V5.10638C66.8181 3.75208 66.2434 2.45326 65.2205 1.49562C64.1976 0.537992 62.8102 0 61.3636 0C59.9169 0 58.5295 0.537992 57.5066 1.49562C56.4837 2.45326 55.909 3.75208 55.909 5.10638V26.3489C55.909 27.7032 56.4837 29.002 57.5066 29.9597C58.5295 30.9173 59.9169 31.4553 61.3636 31.4553ZM31.3636 31.4553C32.8102 31.4553 34.1976 30.9173 35.2205 29.9597C36.2435 29.002 36.8181 27.7032 36.8181 26.3489V24.2553C36.8181 23.9167 36.9618 23.592 37.2175 23.3526C37.4733 23.1132 37.8201 22.9787 38.1818 22.9787H49.0908C49.4525 22.9787 49.7994 22.8442 50.0551 22.6048C50.3108 22.3654 50.4545 22.0407 50.4545 21.7021V14.0425C50.4545 13.704 50.3108 13.3793 50.0551 13.1399C49.7994 12.9004 49.4525 12.7659 49.0908 12.7659H38.1818C37.8201 12.7659 37.4733 12.6314 37.2175 12.392C36.9618 12.1526 36.8181 11.8279 36.8181 11.4894V5.10638C36.8181 3.75208 36.2435 2.45326 35.2205 1.49562C34.1976 0.537992 32.8102 0 31.3636 0C29.917 0 28.5296 0.537992 27.5067 1.49562C26.4837 2.45326 25.9091 3.75208 25.9091 5.10638V26.3489C25.9091 27.7032 26.4837 29.002 27.5067 29.9597C28.5296 30.9173 29.917 31.4553 31.3636 31.4553ZM31.5818 62.3489C32.0888 62.8275 32.6921 63.2074 33.3568 63.4666C34.0215 63.7259 34.7344 63.8593 35.4545 63.8593C36.1746 63.8593 36.8875 63.7259 37.5522 63.4666C38.2169 63.2074 38.8202 62.8275 39.3272 62.3489L55.6908 47.0297C56.7469 46.0682 57.3517 44.7533 57.3721 43.3743C57.3926 41.9953 56.827 40.6652 55.7999 39.6766C54.7728 38.6879 53.3683 38.1218 51.8953 38.1026C50.4222 38.0834 49.0014 38.6129 47.9454 39.5744L35.4545 51.5234L31.1454 47.4383C30.6225 46.9621 30.0046 46.5871 29.3268 46.3346C28.6491 46.082 27.9249 45.9569 27.1956 45.9664C25.7225 45.9856 24.318 46.5517 23.2909 47.5404C22.2638 48.529 21.6982 49.8591 21.7187 51.2381C21.7392 52.6171 22.3439 53.932 23.4 54.8936L31.5818 62.3489ZM31.5818 90.6382C32.0888 91.1168 32.6921 91.4967 33.3568 91.756C34.0215 92.0152 34.7344 92.1487 35.4545 92.1487C36.1746 92.1487 36.8875 92.0152 37.5522 91.756C38.2169 91.4967 38.8202 91.1168 39.3272 90.6382L55.6908 75.3191C56.7179 74.3575 57.295 73.0534 57.295 71.6935C57.295 70.3337 56.7179 69.0296 55.6908 68.068C54.6637 67.1065 53.2707 66.5663 51.8181 66.5663C50.3656 66.5663 48.9725 67.1065 47.9454 68.068L35.4545 79.6084L31.1454 75.3191C30.1183 74.3575 28.7252 73.8173 27.2727 73.8173C25.8201 73.8173 24.4271 74.3575 23.4 75.3191C22.3729 76.2806 21.7958 77.5848 21.7958 78.9446C21.7958 80.3044 22.3729 81.6086 23.4 82.5701L31.5818 90.6382ZM65.4545 53.617C65.4545 54.9713 66.0291 56.2701 67.0521 57.2277C68.075 58.1854 69.4624 58.7234 70.909 58.7234H92.7272C94.1738 58.7234 95.5612 58.1854 96.5841 57.2277C97.607 56.2701 98.1817 54.9713 98.1817 53.617C98.1817 52.2627 97.607 50.9638 96.5841 50.0062C95.5612 49.0486 94.1738 48.5106 92.7272 48.5106H70.909C69.4624 48.5106 68.075 49.0486 67.0521 50.0062C66.0291 50.9638 65.4545 52.2627 65.4545 53.617Z" fill="black" fill-opacity="0.5"/>
</svg>
