<svg width="20" height="20" viewBox="0 0 20 20" fill="none" xmlns="http://www.w3.org/2000/svg">
<path d="M15.8258 9.1665H4.16402C3.24393 9.1665 2.49805 9.9127 2.49805 10.8332V16.6665C2.49805 17.587 3.24393 18.3332 4.16402 18.3332H15.8258C16.7459 18.3332 17.4918 17.587 17.4918 16.6665V10.8332C17.4918 9.9127 16.7459 9.1665 15.8258 9.1665Z" stroke="#9F9FA9" stroke-width="1.66597" stroke-linecap="round" stroke-linejoin="round"/>
<path d="M5.83008 9.1665V5.83317C5.83008 4.7281 6.26888 3.66829 7.04996 2.88689C7.83103 2.10549 8.8904 1.6665 9.99501 1.6665C11.0996 1.6665 12.159 2.10549 12.9401 2.88689C13.7211 3.66829 14.1599 4.7281 14.1599 5.83317V9.1665" stroke="#9F9FA9" stroke-width="1.66597" stroke-linecap="round" stroke-linejoin="round"/>
</svg>
