<svg width="24" height="24" viewBox="0 0 24 24" fill="none" xmlns="http://www.w3.org/2000/svg">
<path d="M19.4856 20.154L13.2236 13.892C12.7236 14.318 12.1486 14.6477 11.4986 14.881C10.8486 15.1144 10.1953 15.231 9.53859 15.231C7.93993 15.231 6.58526 14.6757 5.47459 13.565C4.36393 12.4537 3.80859 11.0987 3.80859 9.50004C3.80859 7.90138 4.36393 6.54671 5.47459 5.43604C6.58526 4.32538 7.93993 3.76971 9.53859 3.76904C11.1373 3.76838 12.4923 4.32404 13.6036 5.43604C14.7149 6.54804 15.2703 7.90271 15.2696 9.50004C15.2696 10.1947 15.1466 10.867 14.9006 11.517C14.6546 12.167 14.3313 12.723 13.9306 13.185L20.1926 19.446L19.4856 20.154ZM9.53959 14.23C10.8663 14.23 11.9863 13.7734 12.8996 12.86C13.8129 11.9467 14.2696 10.8264 14.2696 9.49904C14.2696 8.17171 13.8129 7.05171 12.8996 6.13904C11.9863 5.22638 10.8663 4.76971 9.53959 4.76904C8.21293 4.76838 7.09259 5.22504 6.17859 6.13904C5.26459 7.05304 4.80793 8.17304 4.80859 9.49904C4.80926 10.825 5.26593 11.945 6.17859 12.859C7.09126 13.773 8.21126 14.2297 9.53859 14.229" fill="#1A1A1A"/>
</svg>
