<svg width="28" height="28" viewBox="0 0 28 28" fill="none" xmlns="http://www.w3.org/2000/svg">
<g clip-path="url(#clip0_634_113)">
<path d="M4.375 3.0625V23.1875C4.375 23.429 4.571 23.625 4.8125 23.625H10.36C10.7081 23.625 11.0419 23.7633 11.2881 24.0094C11.5342 24.2556 11.6725 24.5894 11.6725 24.9375C11.6725 25.2856 11.5342 25.6194 11.2881 25.8656C11.0419 26.1117 10.7081 26.25 10.36 26.25H4.8125C4.00027 26.25 3.22132 25.9273 2.64699 25.353C2.07266 24.7787 1.75 23.9997 1.75 23.1875V3.0625C1.75 1.372 3.122 0 4.8125 0H19.6875C21.378 0 22.75 1.372 22.75 3.0625V16.6005C22.75 16.9486 22.6117 17.2824 22.3656 17.5286C22.1194 17.7747 21.7856 17.913 21.4375 17.913C21.0894 17.913 20.7556 17.7747 20.5094 17.5286C20.2633 17.2824 20.125 16.9486 20.125 16.6005V3.0625C20.125 2.94647 20.0789 2.83519 19.9969 2.75314C19.9148 2.67109 19.8035 2.625 19.6875 2.625H4.8125C4.69647 2.625 4.58519 2.67109 4.50314 2.75314C4.42109 2.83519 4.375 2.94647 4.375 3.0625ZM27.6045 19.7522L19.6298 27.5398C19.3822 27.781 19.0494 27.9149 18.7037 27.9123C18.3581 27.9096 18.0274 27.7707 17.7835 27.5258L14.3832 24.1133C14.1519 23.864 14.0262 23.5347 14.0329 23.1947C14.0395 22.8546 14.1779 22.5305 14.4188 22.2904C14.6597 22.0504 14.9844 21.9133 15.3245 21.9079C15.6645 21.9026 15.9934 22.0294 16.2418 22.2617L18.725 24.7555L25.7705 17.8745C26.0197 17.6313 26.3554 17.4971 26.7036 17.5013C26.876 17.5034 27.0463 17.5395 27.2048 17.6074C27.3633 17.6754 27.5068 17.7738 27.6272 17.8973C27.7477 18.0207 27.8426 18.1666 27.9066 18.3267C27.9707 18.4868 28.0025 18.6579 28.0004 18.8303C27.9983 19.0028 27.9623 19.1731 27.8943 19.3315C27.8264 19.49 27.7279 19.6336 27.6045 19.754M8.3125 7H16.1875C16.5356 7 16.8694 7.13828 17.1156 7.38442C17.3617 7.63056 17.5 7.9644 17.5 8.3125C17.5 8.6606 17.3617 8.99444 17.1156 9.24058C16.8694 9.48672 16.5356 9.625 16.1875 9.625H8.3125C7.9644 9.625 7.63056 9.48672 7.38442 9.24058C7.13828 8.99444 7 8.6606 7 8.3125C7 7.9644 7.13828 7.63056 7.38442 7.38442C7.63056 7.13828 7.9644 7 8.3125 7ZM7 13.5625C7 13.2144 7.13828 12.8806 7.38442 12.6344C7.63056 12.3883 7.9644 12.25 8.3125 12.25H11.8125C12.1606 12.25 12.4944 12.3883 12.7406 12.6344C12.9867 12.8806 13.125 13.2144 13.125 13.5625C13.125 13.9106 12.9867 14.2444 12.7406 14.4906C12.4944 14.7367 12.1606 14.875 11.8125 14.875H8.3125C7.9644 14.875 7.63056 14.7367 7.38442 14.4906C7.13828 14.2444 7 13.9106 7 13.5625Z" fill="white"/>
</g>
<defs>
<clipPath id="clip0_634_113">
<rect width="28" height="28" fill="white"/>
</clipPath>
</defs>
</svg>
